<svg width="67" height="67" viewBox="0 0 67 67" fill="none" xmlns="http://www.w3.org/2000/svg">
<circle cx="33.5" cy="33.5" r="33.5" fill="#1E71FF"/>
<path d="M48.6875 28.2874C45.2938 28.2874 43.9063 25.8874 45.5938 22.9437C46.5688 21.2374 45.9875 19.0624 44.2812 18.0874L41.0375 16.2312C39.5563 15.3499 37.6437 15.8749 36.7625 17.3562L36.5562 17.7124C34.8687 20.6562 32.0938 20.6562 30.3875 17.7124L30.1812 17.3562C29.3375 15.8749 27.425 15.3499 25.9437 16.2312L22.7 18.0874C20.9937 19.0624 20.4125 21.2562 21.3875 22.9624C23.0938 25.8874 21.7063 28.2874 18.3125 28.2874C16.3625 28.2874 14.75 29.8812 14.75 31.8499V35.1499C14.75 37.0999 16.3438 38.7124 18.3125 38.7124C21.7063 38.7124 23.0938 41.1124 21.3875 44.0562C20.4125 45.7624 20.9937 47.9374 22.7 48.9124L25.9437 50.7687C27.425 51.6499 29.3375 51.1249 30.2188 49.6437L30.425 49.2874C32.1125 46.3437 34.8875 46.3437 36.5938 49.2874L36.8 49.6437C37.6812 51.1249 39.5938 51.6499 41.075 50.7687L44.3188 48.9124C46.025 47.9374 46.6062 45.7437 45.6312 44.0562C43.925 41.1124 45.3125 38.7124 48.7063 38.7124C50.6562 38.7124 52.2687 37.1187 52.2687 35.1499V31.8499C52.25 29.8999 50.6562 28.2874 48.6875 28.2874ZM33.5 39.5937C30.1438 39.5937 27.4062 36.8562 27.4062 33.4999C27.4062 30.1437 30.1438 27.4062 33.5 27.4062C36.8563 27.4062 39.5938 30.1437 39.5938 33.4999C39.5938 36.8562 36.8563 39.5937 33.5 39.5937Z" fill="white"/>
</svg>
