<svg width="147" height="25" viewBox="0 0 147 25" fill="none" xmlns="http://www.w3.org/2000/svg">
<path d="M0.05 13.5C0.05 11.44 0.51 9.6 1.43 7.98C2.37 6.34 3.64 5.07 5.24 4.17C6.86 3.25 8.67 2.79 10.67 2.79C13.01 2.79 15.06 3.39 16.82 4.59C18.58 5.79 19.81 7.45 20.51 9.57H15.68C15.2 8.57 14.52 7.82 13.64 7.32C12.78 6.82 11.78 6.57 10.64 6.57C9.42 6.57 8.33 6.86 7.37 7.44C6.43 8 5.69 8.8 5.15 9.84C4.63 10.88 4.37 12.1 4.37 13.5C4.37 14.88 4.63 16.1 5.15 17.16C5.69 18.2 6.43 19.01 7.37 19.59C8.33 20.15 9.42 20.43 10.64 20.43C11.78 20.43 12.78 20.18 13.64 19.68C14.52 19.16 15.2 18.4 15.68 17.4H20.51C19.81 19.54 18.58 21.21 16.82 22.41C15.08 23.59 13.03 24.18 10.67 24.18C8.67 24.18 6.86 23.73 5.24 22.83C3.64 21.91 2.37 20.64 1.43 19.02C0.51 17.4 0.05 15.56 0.05 13.5ZM27.6973 1.8V24H23.4973V1.8H27.6973ZM30.167 15.63C30.167 13.95 30.497 12.46 31.157 11.16C31.837 9.86 32.747 8.86 33.887 8.16C35.047 7.46 36.337 7.11 37.757 7.11C38.997 7.11 40.077 7.36 40.997 7.86C41.937 8.36 42.687 8.99 43.247 9.75V7.38H47.477V24H43.247V21.57C42.707 22.35 41.957 23 40.997 23.52C40.057 24.02 38.967 24.27 37.727 24.27C36.327 24.27 35.047 23.91 33.887 23.19C32.747 22.47 31.837 21.46 31.157 20.16C30.497 18.84 30.167 17.33 30.167 15.63ZM43.247 15.69C43.247 14.67 43.047 13.8 42.647 13.08C42.247 12.34 41.707 11.78 41.027 11.4C40.347 11 39.617 10.8 38.837 10.8C38.057 10.8 37.337 10.99 36.677 11.37C36.017 11.75 35.477 12.31 35.057 13.05C34.657 13.77 34.457 14.63 34.457 15.63C34.457 16.63 34.657 17.51 35.057 18.27C35.477 19.01 36.017 19.58 36.677 19.98C37.357 20.38 38.077 20.58 38.837 20.58C39.617 20.58 40.347 20.39 41.027 20.01C41.707 19.61 42.247 19.05 42.647 18.33C43.047 17.59 43.247 16.71 43.247 15.69ZM55.179 9.96C55.719 9.08 56.419 8.39 57.279 7.89C58.159 7.39 59.159 7.14 60.279 7.14V11.55H59.169C57.849 11.55 56.849 11.86 56.169 12.48C55.509 13.1 55.179 14.18 55.179 15.72V24H50.979V7.38H55.179V9.96ZM64.6379 5.4C63.8979 5.4 63.2779 5.17 62.7779 4.71C62.2979 4.23 62.0579 3.64 62.0579 2.94C62.0579 2.24 62.2979 1.66 62.7779 1.2C63.2779 0.719999 63.8979 0.479999 64.6379 0.479999C65.3779 0.479999 65.9879 0.719999 66.4679 1.2C66.9679 1.66 67.2179 2.24 67.2179 2.94C67.2179 3.64 66.9679 4.23 66.4679 4.71C65.9879 5.17 65.3779 5.4 64.6379 5.4ZM66.7079 7.38V24H62.5079V7.38H66.7079ZM86.5475 2.94L78.5075 24H77.0075L68.9975 2.94H70.4675L77.7575 22.41L85.1075 2.94H86.5475ZM96.3777 24.24C94.8577 24.24 93.4877 23.9 92.2677 23.22C91.0477 22.54 90.0877 21.57 89.3877 20.31C88.7077 19.03 88.3677 17.54 88.3677 15.84C88.3677 14.16 88.7177 12.69 89.4177 11.43C90.1177 10.15 91.0777 9.18 92.2977 8.52C93.5377 7.84 94.9177 7.5 96.4377 7.5C97.9577 7.5 99.3277 7.84 100.548 8.52C101.768 9.18 102.718 10.14 103.398 11.4C104.098 12.66 104.448 14.14 104.448 15.84C104.448 17.54 104.098 19.03 103.398 20.31C102.698 21.57 101.728 22.54 100.488 23.22C99.2677 23.9 97.8977 24.24 96.3777 24.24ZM96.3777 23.04C97.5577 23.04 98.6577 22.78 99.6777 22.26C100.718 21.72 101.548 20.91 102.168 19.83C102.788 18.75 103.098 17.42 103.098 15.84C103.098 14.28 102.788 12.96 102.168 11.88C101.548 10.8 100.728 10 99.7077 9.48C98.6877 8.94 97.5877 8.67 96.4077 8.67C95.2277 8.67 94.1277 8.94 93.1077 9.48C92.1077 10 91.2977 10.8 90.6777 11.88C90.0577 12.96 89.7477 14.28 89.7477 15.84C89.7477 17.42 90.0477 18.75 90.6477 19.83C91.2677 20.91 92.0777 21.72 93.0777 22.26C94.0977 22.78 95.1977 23.04 96.3777 23.04ZM108.634 4.08C108.314 4.08 108.044 3.98 107.824 3.78C107.604 3.56 107.494 3.27 107.494 2.91C107.494 2.57 107.604 2.29 107.824 2.07C108.044 1.85 108.314 1.74 108.634 1.74C108.954 1.74 109.224 1.85 109.444 2.07C109.664 2.29 109.774 2.57 109.774 2.91C109.774 3.27 109.664 3.56 109.444 3.78C109.224 3.98 108.954 4.08 108.634 4.08ZM109.294 7.71V24H107.944V7.71H109.294ZM112.802 15.84C112.802 14.14 113.132 12.66 113.792 11.4C114.472 10.14 115.402 9.18 116.582 8.52C117.782 7.84 119.152 7.5 120.692 7.5C122.732 7.5 124.402 8.01 125.702 9.03C127.022 10.05 127.842 11.42 128.162 13.14H126.752C126.492 11.74 125.812 10.64 124.712 9.84C123.632 9.04 122.292 8.64 120.692 8.64C119.492 8.64 118.402 8.91 117.422 9.45C116.442 9.97 115.652 10.78 115.052 11.88C114.472 12.96 114.182 14.28 114.182 15.84C114.182 17.42 114.472 18.75 115.052 19.83C115.652 20.91 116.442 21.72 117.422 22.26C118.402 22.8 119.492 23.07 120.692 23.07C122.292 23.07 123.632 22.67 124.712 21.87C125.812 21.07 126.492 19.97 126.752 18.57H128.162C127.842 20.27 127.022 21.64 125.702 22.68C124.382 23.72 122.712 24.24 120.692 24.24C119.152 24.24 117.782 23.9 116.582 23.22C115.402 22.54 114.472 21.57 113.792 20.31C113.132 19.03 112.802 17.54 112.802 15.84ZM146.345 14.76C146.345 15.48 146.325 16.02 146.285 16.38H132.215C132.255 17.84 132.575 19.07 133.175 20.07C133.775 21.07 134.565 21.82 135.545 22.32C136.525 22.82 137.595 23.07 138.755 23.07C140.355 23.07 141.695 22.68 142.775 21.9C143.855 21.1 144.535 20.02 144.815 18.66H146.225C145.905 20.32 145.085 21.67 143.765 22.71C142.445 23.73 140.775 24.24 138.755 24.24C137.235 24.24 135.875 23.9 134.675 23.22C133.475 22.54 132.535 21.57 131.855 20.31C131.175 19.03 130.835 17.54 130.835 15.84C130.835 14.14 131.165 12.66 131.825 11.4C132.505 10.14 133.445 9.18 134.645 8.52C135.845 7.84 137.215 7.5 138.755 7.5C140.315 7.5 141.665 7.84 142.805 8.52C143.965 9.18 144.845 10.07 145.445 11.19C146.045 12.29 146.345 13.48 146.345 14.76ZM144.995 15.27C145.055 13.83 144.795 12.61 144.215 11.61C143.655 10.61 142.885 9.87 141.905 9.39C140.925 8.89 139.865 8.64 138.725 8.64C137.585 8.64 136.525 8.89 135.545 9.39C134.585 9.87 133.795 10.61 133.175 11.61C132.575 12.61 132.255 13.83 132.215 15.27H144.995Z" fill="#1E71FF"/>
</svg>
