<svg width="167" height="53" viewBox="0 0 167 53" fill="none" xmlns="http://www.w3.org/2000/svg">
<g clip-path="url(#clip0_16_147)">
<path d="M31.5217 18.0115H40.7602V9.17818C40.7602 6.71121 39.4097 5.46446 36.6474 5.46446H35.6038C32.8722 5.46446 31.491 6.71121 31.491 9.17818L31.5217 18.0115ZM31.5217 23.6617L31.5524 33.3704C31.5524 35.8373 32.9335 37.0576 35.6652 37.0576H36.8622C39.5939 37.0576 40.9751 35.8373 40.9751 33.3704V28.5956H47.2671V33.1316C47.2671 39.3654 43.7681 42.5485 36.8315 42.5485H35.4504C28.5138 42.5485 25.0148 39.3919 25.0148 33.8744V10.1331C25.0148 3.15666 28.5138 0 35.4504 0H36.8315C43.7681 0 47.2671 3.15666 47.2671 9.39039L47.2364 23.6351L31.5217 23.6617Z" fill="#2B353E" fill-opacity="0.3"/>
<path d="M57.9789 34.8292C59.7591 36.2085 61.8155 36.9778 63.964 36.9778C66.358 36.9778 67.7392 35.9698 67.7392 33.5824V8.91275C67.7392 6.52537 66.358 5.51736 63.964 5.51736C61.8155 5.51736 59.7591 6.28663 57.9789 7.66601V34.8292ZM51.472 0.477318H57.9789V3.18302C59.5135 1.72406 62.1531 0.0263672 65.9283 0.0263672C71.4838 0.0263672 74.2154 3.34218 74.2154 8.27612V34.3252C74.2154 39.2591 71.4838 42.5749 65.9283 42.5749C62.1531 42.5749 59.5135 40.9568 57.9789 39.5774V52.9998H51.472V0.477318Z" fill="#2B353E" fill-opacity="0.3"/>
<path d="M93.7053 35.0679V21.3537L87.8123 23.3697C85.4183 24.2186 84.651 25.3061 84.651 27.6935V34.0068C84.651 36.0229 85.7559 37.0043 87.8123 37.0043C89.7767 37.0043 91.5875 36.3942 93.7053 35.0679ZM78.1441 27.5874C78.1441 22.4148 80.0163 20.3457 84.9886 18.8071L93.7053 16.1014V9.17802C93.7053 6.71105 92.3242 5.41125 89.5925 5.41125H88.549C85.8173 5.41125 84.4361 6.71105 84.4361 9.17802V15.0669H78.1134V9.41676C78.1134 3.18302 81.6124 0.0263672 88.549 0.0263672H89.7767C96.7133 0.0263672 100.212 3.18302 100.212 9.41676V42.0974H93.7053V39.4713C91.9252 41.0098 89.5004 42.5484 85.7559 42.5484C80.5381 42.5484 78.1441 39.8427 78.1441 35.2271V27.5874Z" fill="#2B353E" fill-opacity="0.3"/>
<path d="M126.485 42.0976H119.979V8.56807C119.979 6.499 118.874 5.57057 116.909 5.57057C115.129 5.57057 113.226 6.18068 110.924 7.63964V42.0976H104.417V0.477477H110.924V3.18318C112.827 1.56506 115.283 0 118.874 0C122.219 0 124.429 1.24675 125.626 3.39539C127.959 1.61812 130.69 0 134.435 0C139.469 0 142.047 2.78528 142.047 7.32132V42.0711H135.54V8.56807C135.54 6.499 134.435 5.57057 132.471 5.57057C130.69 5.57057 128.787 6.18068 126.485 7.63964V42.0976Z" fill="#2B353E" fill-opacity="0.3"/>
<path d="M0 18.6216V24.2452L16.6969 38.3838V30.5585L5.77026 21.3538L16.6969 11.9634V4.29724L0 18.6216Z" fill="#2B353E" fill-opacity="0.3"/>
<path d="M150.303 11.9634L161.23 21.3538L150.303 30.585V38.3838L167 24.2452V18.6216L150.303 4.29724V11.9634Z" fill="#2B353E" fill-opacity="0.3"/>
</g>
<defs>
<clipPath id="clip0_16_147">
<rect width="167" height="53" fill="white"/>
</clipPath>
</defs>
</svg>
