<svg width="233" height="50" viewBox="0 0 233 50" fill="none" xmlns="http://www.w3.org/2000/svg">
<path d="M8.91428 15.4484C7.3791 15.4484 6.02454 14.8782 5.03119 14.0635V46.1621H12.7974V14.0635C11.804 14.8782 10.4495 15.4484 8.91428 15.4484Z" fill="#2B353E" fill-opacity="0.3"/>
<path d="M8.91426 11.8642C11.3082 11.8642 13.2489 10.0769 13.2489 7.87221C13.2489 5.66751 11.3082 3.88025 8.91426 3.88025C6.52032 3.88025 4.57965 5.66751 4.57965 7.87221C4.57965 10.0769 6.52032 11.8642 8.91426 11.8642Z" fill="#2B353E" fill-opacity="0.3"/>
<path d="M19.209 13.8191H26.6139V18.5443L26.7945 18.7072C27.9685 16.9149 29.5037 15.53 31.4001 14.4709C33.2964 13.4118 35.4637 12.923 37.7213 12.923C41.6044 12.923 44.6748 13.8191 46.8421 15.6929C49.0997 17.4852 50.1833 20.2551 50.1833 23.9212V46.0807H42.4172V25.795C42.3269 23.2695 41.6947 21.3957 40.6111 20.2551C39.5274 19.1146 37.8116 18.5443 35.4637 18.5443C34.1092 18.5443 32.9352 18.7887 31.9419 19.1961C30.8582 19.6034 30.0455 20.2551 29.3231 20.9884C28.6006 21.7216 28.0588 22.6992 27.6073 23.6768C27.1558 24.7359 26.9751 25.795 26.9751 27.017V46.0807H19.209V13.8191Z" fill="#2B353E" fill-opacity="0.3"/>
<path d="M52.7117 13.8195H58.4912V11.131C58.4912 9.09428 58.7621 7.46491 59.3039 6.16141C59.8458 4.85791 60.5682 3.88029 61.4712 3.22854C62.3743 2.57679 63.4579 2.08798 64.5416 1.84357C65.7155 1.59917 66.8895 1.5177 68.1537 1.5177C70.6823 1.5177 72.4883 1.68064 73.572 1.92504V7.46491C73.0302 7.30197 72.5786 7.2205 71.9465 7.2205C71.5853 7.2205 70.8629 7.13903 70.1404 7.13903C69.0568 7.13903 68.1537 7.38344 67.4313 7.79078C66.7089 8.2796 66.3477 9.17575 66.3477 10.4792V13.8195H72.9399V19.1149H66.3477V46.081H58.5815V19.1149H52.802L52.7117 13.8195Z" fill="#2B353E" fill-opacity="0.3"/>
<path d="M91.7233 46.9768C88.9239 46.9768 86.3954 46.5695 84.2281 45.6733C82.0607 44.8587 80.1644 43.6366 78.6292 42.1702C77.094 40.7038 75.92 38.9114 75.1073 36.7933C74.2946 34.6751 73.9333 32.394 73.9333 29.9499C73.9333 27.5059 74.2946 25.2247 75.1073 23.1065C75.92 20.9884 77.094 19.1961 78.6292 17.7296C80.1644 16.2632 81.9704 15.0412 84.2281 14.2265C86.3954 13.4118 88.9239 12.923 91.7233 12.923C94.5228 12.923 97.0513 13.3303 99.2186 14.2265C101.386 15.0412 103.282 16.2632 104.817 17.7296C106.353 19.1961 107.527 20.9884 108.339 23.1065C109.152 25.2247 109.513 27.4244 109.513 29.9499C109.513 32.4754 109.152 34.7566 108.339 36.7933C107.527 38.9114 106.353 40.7038 104.817 42.1702C103.282 43.6366 101.386 44.8587 99.2186 45.6733C97.0513 46.5695 94.5228 46.9768 91.7233 46.9768ZM91.7233 41.3555C93.4391 41.3555 94.9743 41.0296 96.2385 40.3779C97.5028 39.7261 98.5865 38.83 99.3992 37.7709C100.212 36.7118 100.844 35.4898 101.205 34.1048C101.566 32.7198 101.747 31.3349 101.747 29.9499C101.747 28.5649 101.566 27.18 101.205 25.795C100.844 24.41 100.212 23.188 99.3992 22.1289C98.5865 21.0698 97.5028 20.1737 96.2385 19.5219C94.9743 18.8702 93.4391 18.5443 91.7233 18.5443C90.0075 18.5443 88.4724 18.8702 87.2081 19.5219C85.9438 20.1737 84.8602 21.0698 84.0474 22.1289C83.2347 23.188 82.6026 24.41 82.2414 25.795C81.8801 27.18 81.6995 28.5649 81.6995 29.9499C81.6995 31.3349 81.8801 32.7198 82.2414 34.1048C82.6026 35.4898 83.2347 36.7118 84.0474 37.7709C84.8602 38.83 85.9438 39.7261 87.2081 40.3779C88.4724 41.0296 90.0075 41.3555 91.7233 41.3555Z" fill="#2B353E" fill-opacity="0.3"/>
<path d="M114.119 1.5177H121.885V17.9744H122.066C122.607 17.1597 123.24 16.5079 124.052 15.8562C124.865 15.2044 125.678 14.7156 126.581 14.2268C127.484 13.8195 128.477 13.4936 129.471 13.2492C130.464 13.0048 131.548 12.9233 132.541 12.9233C135.34 12.9233 137.688 13.3307 139.765 14.2268C141.842 15.123 143.558 16.345 144.913 17.8929C146.267 19.4408 147.261 21.3146 147.983 23.3513C148.705 25.4695 148.976 27.6691 148.976 30.0317C148.976 32.2314 148.705 34.2681 148.073 36.3048C147.441 38.3415 146.538 40.1338 145.274 41.6817C144.01 43.2296 142.474 44.5331 140.578 45.4293C138.682 46.4069 136.424 46.8143 133.805 46.8143C132.631 46.8143 131.457 46.7328 130.193 46.5699C129.019 46.4069 127.845 46.1625 126.761 45.7552C125.678 45.3478 124.684 44.7775 123.781 44.1258C122.878 43.474 122.156 42.5779 121.524 41.5188H121.434V45.9181H114.029L114.119 1.5177ZM141.21 30.0317C141.21 28.5653 141.03 27.1803 140.578 25.7954C140.127 24.4104 139.585 23.1884 138.772 22.1293C137.959 21.0702 136.966 20.174 135.702 19.6037C134.437 18.952 133.083 18.6261 131.457 18.6261C128.206 18.6261 125.678 19.6852 124.052 21.7219C122.427 23.8401 121.524 26.61 121.524 30.0317C121.524 31.6611 121.704 33.1275 122.156 34.594C122.607 35.9789 123.24 37.201 124.143 38.1786C125.046 39.1562 126.039 39.9709 127.213 40.5412C128.387 41.1115 129.832 41.4373 131.367 41.4373C133.173 41.4373 134.618 41.1115 135.882 40.4597C137.147 39.808 138.14 38.9118 138.953 37.8527C139.765 36.7936 140.307 35.5716 140.668 34.2681C141.03 32.8017 141.21 31.4167 141.21 30.0317Z" fill="#2B353E" fill-opacity="0.3"/>
<path d="M182.931 38.912C182.931 39.8081 183.021 40.3784 183.292 40.7858C183.563 41.1931 184.014 41.356 184.737 41.356C185.008 41.356 185.279 41.356 185.55 41.356C185.911 41.356 186.272 41.2746 186.633 41.1931V46.1627C186.362 46.2442 186.001 46.3256 185.55 46.4071C185.098 46.4886 184.647 46.57 184.195 46.6515C183.743 46.733 183.292 46.8144 182.84 46.8144C182.389 46.8959 182.028 46.8959 181.666 46.8959C180.041 46.8959 178.777 46.57 177.693 45.9997C176.609 45.4295 175.977 44.3704 175.616 42.9039C174.081 44.2889 172.185 45.2665 169.927 45.9183C167.669 46.57 165.502 46.8144 163.425 46.8144C161.8 46.8144 160.355 46.6515 158.819 46.2442C157.375 45.8368 156.11 45.2665 154.936 44.5333C153.853 43.8001 152.95 42.8225 152.318 41.6004C151.685 40.3784 151.324 38.9934 151.324 37.4455C151.324 35.4088 151.685 33.8609 152.498 32.5574C153.311 31.3354 154.304 30.3578 155.659 29.6246C156.923 28.8913 158.368 28.4025 159.993 28.0766C161.619 27.7508 163.244 27.5064 164.87 27.3434C166.315 27.099 167.579 26.9361 168.934 26.7731C170.198 26.6917 171.372 26.5287 172.275 26.2029C173.268 25.9585 173.991 25.5511 174.623 25.0623C175.165 24.5735 175.435 23.7588 175.435 22.6997C175.435 21.8036 175.165 21.0703 174.713 20.4186C174.262 19.8483 173.629 19.3595 172.907 19.1151C172.185 18.7892 171.462 18.6263 170.559 18.4634C169.656 18.3819 168.843 18.3004 168.121 18.3004C165.954 18.3004 164.147 18.7078 162.703 19.5224C161.258 20.3371 160.535 21.6406 160.355 23.4329H152.588C152.769 21.3148 153.311 19.6039 154.214 18.2189C155.207 16.834 156.381 15.7749 157.826 14.8787C159.271 14.064 160.987 13.4938 162.883 13.1679C164.78 12.842 166.676 12.6791 168.572 12.6791C170.288 12.6791 172.004 12.842 173.72 13.1679C175.435 13.4938 176.88 14.064 178.235 14.7973C179.589 15.5305 180.673 16.5081 181.486 17.7301C182.299 18.9522 182.75 20.3371 182.75 22.048V38.912H182.931ZM175.165 29.9504C173.991 30.6836 172.546 31.091 170.83 31.2539C169.114 31.4169 167.398 31.5798 165.683 31.9057C164.87 32.0686 164.057 32.2315 163.335 32.476C162.522 32.7204 161.89 33.0462 161.258 33.4536C160.626 33.8609 160.174 34.3497 159.903 35.0015C159.542 35.6532 159.361 36.4679 159.361 37.3641C159.361 38.1788 159.632 38.8305 160.084 39.4008C160.626 39.9711 161.167 40.3784 161.89 40.7043C162.612 41.0302 163.335 41.2746 164.238 41.356C165.05 41.519 165.863 41.519 166.495 41.519C167.398 41.519 168.301 41.4375 169.295 41.1931C170.288 40.9487 171.281 40.6228 172.094 40.134C172.997 39.6452 173.72 38.9934 174.352 38.2602C174.984 37.527 175.255 36.5494 175.255 35.4088V29.9504H175.165Z" fill="#2B353E" fill-opacity="0.3"/>
<path d="M195.303 31.8239C195.303 33.0459 195.483 34.268 195.844 35.4085C196.206 36.5491 196.838 37.6082 197.56 38.5043C198.373 39.4005 199.276 40.0522 200.45 40.6225C201.624 41.1113 203.069 41.4372 204.694 41.4372C206.952 41.4372 208.758 41.0299 210.203 40.1337C211.557 39.2375 212.641 37.934 213.273 36.1417H220.678C220.227 37.8526 219.594 39.4819 218.601 40.8669C217.608 42.2519 216.434 43.3924 214.989 44.3701C213.544 45.2662 212.009 45.9994 210.293 46.4882C208.577 46.9771 206.681 47.2215 204.784 47.2215C201.985 47.2215 199.547 46.8141 197.379 45.9994C195.212 45.1848 193.406 43.9627 191.961 42.4963C190.516 41.0299 189.342 39.2375 188.62 37.1194C187.898 35.0012 187.536 32.7201 187.536 30.276C187.536 27.9949 187.898 25.7952 188.71 23.7585C189.523 21.7218 190.607 19.848 192.142 18.3001C193.587 16.7522 195.393 15.5302 197.47 14.5526C199.547 13.6564 201.895 13.1676 204.604 13.1676C207.403 13.1676 209.842 13.7379 212.099 14.797C214.266 15.8561 216.163 17.241 217.608 19.0333C219.053 20.7442 220.136 22.7809 220.768 25.062C221.4 27.3431 221.581 29.7057 221.31 32.0683H195.303V31.8239ZM213.454 27.0987C213.363 25.9582 213.092 24.8991 212.641 23.84C212.189 22.7809 211.648 21.8847 210.835 21.1515C210.112 20.4183 209.209 19.7666 208.126 19.2777C207.042 18.7889 205.868 18.5445 204.514 18.5445C203.159 18.5445 201.895 18.7889 200.811 19.1963C199.727 19.6036 198.734 20.2554 197.921 20.9886C197.109 21.7218 196.476 22.6994 196.025 23.677C195.573 24.7361 195.302 25.8767 195.212 27.0173L213.454 27.0987Z" fill="#2B353E" fill-opacity="0.3"/>
</svg>
