<svg width="219" height="51" viewBox="0 0 219 51" fill="none" xmlns="http://www.w3.org/2000/svg">
<g clip-path="url(#clip0_16_358)">
<path d="M207.945 40.1683C201.207 40.1683 196.993 36.3107 196.993 30.2123V21.0221C196.993 14.9236 201.207 11.066 207.945 11.066C214.786 11.066 219 14.9236 219 21.0221V30.2123C219 36.4242 214.89 40.1683 207.945 40.1683ZM215.124 21.0221C215.124 17.1644 212.393 14.8102 207.945 14.8102C203.497 14.8102 200.869 17.1644 200.869 21.0221V30.2123C200.869 33.9564 203.601 36.3107 207.945 36.3107C212.393 36.3107 215.124 34.0699 215.124 30.2123V21.0221ZM192.415 26.8652H175.871V29.5883C175.871 34.0699 178.368 36.4242 182.947 36.4242C186.484 36.4242 188.877 35.0627 190.36 32.1978C190.698 31.5738 191.167 31.4603 191.505 31.4603C191.739 31.4603 191.973 31.5738 192.181 31.7156L193.196 32.3396C193.534 32.5949 193.768 32.8502 193.872 33.0771C193.976 33.4459 193.872 33.8146 193.638 34.1834C191.687 38.041 188.045 40.0265 183.025 40.0265C176.079 40.0265 172.177 36.1689 172.177 29.0777V22.2418C172.177 15.0371 176.157 10.8107 183.233 10.8107C190.178 10.8107 194.288 15.0371 194.288 22.0148V24.8797C194.132 25.9859 193.898 26.8652 192.415 26.8652ZM190.36 22.0148C190.36 17.2779 187.733 14.6683 183.051 14.6683C178.368 14.6683 175.871 17.2779 175.871 22.0148V23.6316H190.36V22.0148ZM166.767 39.4309H165.284C164.478 39.4309 164.139 39.0621 164.139 38.1828V1.2234C164.139 0.344088 164.478 -0.0246582 165.284 -0.0246582H166.767C167.677 -0.0246582 167.911 0.485912 167.911 1.2234V38.1544C167.885 39.0337 167.677 39.4309 166.767 39.4309ZM149.546 40.1683C147.491 40.1683 145.098 39.6578 142.471 38.5516V49.7557C142.471 50.4932 142.003 51.0037 141.326 51.0037H139.74C139.063 51.0037 138.595 50.4932 138.595 49.7557V15.7746C138.595 14.0443 139.063 13.2785 140.754 12.541C143.147 11.5482 146.113 11.0376 149.416 11.0376C156.258 11.0376 159.795 14.64 159.795 21.8446V29.4181C159.795 36.566 156.258 40.1683 149.546 40.1683ZM155.919 22.0148C155.919 17.2779 153.63 14.9236 148.974 14.9236C146.815 14.9236 144.864 15.2924 143.277 15.9164C142.601 16.2851 142.471 16.2851 142.471 17.0226V34.6939C144.864 35.8002 147.023 36.4242 149.208 36.4242C153.656 36.4242 155.945 34.0699 155.945 29.333L155.919 22.0148ZM132.872 39.4309H131.39C130.583 39.4309 130.245 39.0621 130.245 38.1828V21.5043C130.245 17.0226 128.294 14.9236 124.418 14.9236C122.259 14.9236 120.074 15.4342 118.149 16.5404C118.721 17.7885 118.956 19.4053 118.956 21.3908V38.2963C118.956 39.0337 118.721 39.5443 117.811 39.5443H116.328C115.522 39.5443 115.184 39.1756 115.184 38.2963V21.5043C115.184 17.0226 113.233 14.9236 109.253 14.9236C107.432 14.9236 105.715 15.2924 104.232 15.9164C103.764 16.1717 103.66 16.5404 103.66 17.0226V38.1544C103.66 38.8919 103.192 39.4025 102.516 39.4025H100.929C100.253 39.4025 99.7843 38.8919 99.7843 38.1544V16.0015C99.7843 14.2712 100.253 13.5054 101.839 12.7679C104.232 11.6617 106.86 11.0376 109.721 11.0376C112.452 11.0376 114.507 11.7751 116.12 13.2785C119.086 11.7751 122.051 11.0376 124.912 11.0376C130.947 11.0376 134.147 14.5265 134.147 21.3624V38.2679C134.017 39.0338 133.783 39.4309 132.872 39.4309ZM94.5558 26.8652H78.0118V29.5883C78.0118 34.0699 80.509 36.4242 85.0872 36.4242C88.6249 36.4242 91.0181 35.0627 92.5008 32.1978C92.8389 31.5738 93.3072 31.4603 93.5153 31.4603C93.7494 31.4603 93.9835 31.5738 94.1916 31.7156L95.2061 32.3396C95.5442 32.5949 95.7784 32.8502 95.8824 33.0771C95.9865 33.4459 95.8824 33.8146 95.6483 34.1834C93.6974 38.041 90.0556 40.0265 85.0352 40.0265C78.0898 40.0265 74.1879 36.1689 74.1879 29.0777V22.2418C74.1879 15.0371 78.1678 10.8107 85.2433 10.8107C92.1886 10.8107 96.2986 15.0371 96.2986 22.0148V24.8797C96.2726 25.9859 96.0385 26.8652 94.5558 26.8652ZM92.5008 22.0148C92.5008 17.2779 89.8735 14.6683 85.1912 14.6683C80.509 14.6683 78.0118 17.2779 78.0118 22.0148V23.6316H92.5008V22.0148ZM59.985 40.1683C53.2478 40.1683 49.0337 36.3107 49.0337 30.2123V21.0221C49.0337 14.9236 53.2478 11.066 59.985 11.066C66.8263 11.066 71.0404 14.9236 71.0404 21.0221V30.2123C71.0664 36.4242 66.9564 40.1683 59.985 40.1683ZM67.1905 21.0221C67.1905 17.1644 64.4592 14.8102 60.011 14.8102C55.5629 14.8102 52.9356 17.1644 52.9356 21.0221V30.2123C52.9356 33.9564 55.6669 36.3107 60.011 36.3107C64.4592 36.3107 67.1905 34.0699 67.1905 30.2123V21.0221ZM47.2129 15.6611H40.4756V38.1828C40.4756 39.0621 40.1374 39.4309 39.331 39.4309H37.8483C37.172 39.4309 36.7038 38.9203 36.7038 38.1828V15.6611H32.5938C31.9174 15.6611 31.4492 15.1505 31.4492 14.4131V13.0515C31.4492 12.1722 31.7874 11.8035 32.5938 11.8035H36.7038V10.8107C36.7038 3.09548 39.5652 0.117168 46.8487 0.00370839H47.1868C48.0973 0.00370839 48.3314 0.514274 48.3314 1.25176V2.61327C48.3314 3.49258 47.8632 3.86133 47.1868 3.86133C44.6896 3.86133 42.8427 4.37189 41.9323 5.36467C41.0219 6.24398 40.5536 8.08769 40.5536 10.8391V11.8319H47.3429C48.2534 11.8319 48.4875 12.3424 48.4875 13.0799V14.4414C48.3574 15.2924 48.0192 15.6611 47.2129 15.6611ZM28.6399 39.4309H27.1571C26.3508 39.4309 26.0126 39.0621 26.0126 38.1828V21.7596C26.0126 17.1644 23.8535 14.9236 19.5094 14.9236C17.2203 14.9236 15.0613 15.2924 13.1103 16.0298C12.7722 16.2851 12.5381 16.5404 12.5381 17.0226V38.1544C12.5381 38.8919 12.0698 39.4025 11.3935 39.4025H9.80675C9.13042 39.4025 8.66219 38.8919 8.66219 38.1544V16.0015C8.66219 14.2712 9.13042 13.5054 10.7172 12.8814C13.3445 11.6333 16.4139 11.0093 19.8476 11.0093C26.4548 11.0093 29.7584 14.6116 29.7584 21.5894V38.1261C29.7584 39.0338 29.4202 39.4309 28.6399 39.4309ZM2.73132 39.4309H1.14455C0.468227 39.4309 0 38.9203 0 38.1828V13.0515C0 12.3141 0.468227 11.8035 1.14455 11.8035H2.73132C3.40765 11.8035 3.87588 12.3141 3.87588 13.0515V38.1828C3.87588 39.0337 3.43366 39.4309 2.73132 39.4309Z" fill="#2B353E" fill-opacity="0.3"/>
</g>
<defs>
<clipPath id="clip0_16_358">
<rect width="219" height="51" fill="white"/>
</clipPath>
</defs>
</svg>
