<svg width="216" height="51" viewBox="0 0 216 51" fill="none" xmlns="http://www.w3.org/2000/svg">
<g clip-path="url(#clip0_16_360)">
<path d="M4.53913 4.4801C1.95652 4.4801 0 6.54273 0 9.04892C0 11.5551 1.95652 13.4847 4.53913 13.4847C7.12173 13.4847 9.07825 11.544 9.07825 9.04892C9.07825 6.54273 7.12173 4.4801 4.53913 4.4801Z" fill="#2B353E" fill-opacity="0.3"/>
<path d="M7.81492 18.9961H1.26337V50.501H7.81492V18.9961Z" fill="#2B353E" fill-opacity="0.3"/>
<path d="M29.5379 18.4971C25.3118 18.4971 21.533 20.6262 19.2634 24.3744V18.9961H12.7118V50.501H19.2634V37.7482C19.2634 29.0542 23.2994 24.2414 27.3913 24.2414C30.3541 24.2414 32.3106 25.7384 32.3106 29.9967V50.501H38.8622V27.9341C38.8734 21.8128 35.0945 18.4971 29.5379 18.4971Z" fill="#2B353E" fill-opacity="0.3"/>
<path d="M57.0857 10.2577C58.282 10.2577 59.4783 10.4462 60.8087 11.1338L62.1279 5.63345C60.9317 5.01245 59.0422 4.51343 56.8956 4.51343C50.4671 4.51343 46.241 7.95113 46.241 15.6361V18.9961H42.149V24.7515H46.241V50.501H52.7925V24.7515H59.7913V18.9961H52.7925V15.1925C52.8037 11.9433 54.1901 10.2577 57.0857 10.2577Z" fill="#2B353E" fill-opacity="0.3"/>
<path d="M76.9976 18.4971C67.1703 18.4971 61.3678 25.8715 61.3678 34.7541C61.3678 43.6256 67.1703 51.0111 76.9976 51.0111C86.8249 51.0111 92.6274 43.6367 92.6274 34.7541C92.6274 25.8715 86.8361 18.4971 76.9976 18.4971ZM76.9976 45.2557C71.2622 45.2557 68.2995 40.0659 68.2995 34.7541C68.2995 29.4423 71.2622 24.2525 76.9976 24.2525C82.733 24.2525 85.6957 29.4423 85.6957 34.7541C85.6957 40.0659 82.733 45.2557 76.9976 45.2557Z" fill="#2B353E" fill-opacity="0.3"/>
<path d="M143.474 0.221802C132.429 0.221802 121.942 1.00915 112.506 2.42859V8.2616C121.942 6.85325 132.429 6.05481 143.474 6.05481C154.554 6.05481 165.063 6.85325 174.51 8.2616V2.42859C165.063 1.02024 154.554 0.221802 143.474 0.221802Z" fill="#2B353E" fill-opacity="0.3"/>
<path d="M110.169 45.0339C107.273 45.0339 105.943 43.4703 105.943 39.9106V24.5296H114.194V18.7743H105.943V3.31567L99.3912 4.72402V18.7632H94.0918V24.5186H99.3912V39.5225C99.3912 47.274 103.807 50.7782 109.789 50.7782C111.555 50.7782 113.187 50.4677 114.898 49.6582L113.199 44.1578C112.069 44.8454 111.309 45.0339 110.169 45.0339Z" fill="#2B353E" fill-opacity="0.3"/>
<path d="M131.065 18.2753C120.6 18.2753 116.251 27.0248 116.251 34.5323C116.251 42.0287 120.6 50.7893 131.065 50.7893C138.309 50.7893 141.909 47.8506 144.995 41.9178L139.383 39.7332C137.739 43.1709 134.463 45.045 131.065 45.045C125.899 45.045 123.183 40.9863 123.183 36.3509H145.677V33.5342C145.677 26.4703 141.205 18.2753 131.065 18.2753ZM123.306 30.9061C123.999 26.9693 126.704 24.0307 131.053 24.0307C135.783 24.0307 138.175 27.4018 138.745 30.9061H123.306Z" fill="#2B353E" fill-opacity="0.3"/>
<path d="M163.834 24.0307C167.613 24.0307 170.195 26.0933 171.716 29.4644L177.574 26.9693C175.059 21.2805 170.575 18.2753 163.834 18.2753C153.749 18.2753 148.897 25.9048 148.897 34.5323C148.897 43.1598 153.749 50.7893 163.834 50.7893C170.575 50.7893 175.047 47.7841 177.574 42.0952L171.716 39.6001C170.206 42.9713 167.624 45.0339 163.834 45.0339C158.221 45.0339 155.829 40.4651 155.829 34.5323C155.829 28.5884 158.221 24.0307 163.834 24.0307Z" fill="#2B353E" fill-opacity="0.3"/>
<path d="M198.336 18.3861C193.55 18.3861 189.895 21.0143 187.625 24.2635V4.84597L181.073 3.43762V50.39H187.625V37.0828C187.625 28.7103 192.6 24.1415 196.2 24.1415C199.163 24.1415 201.175 25.0841 201.175 29.8969V50.4011H207.727V28.2002C207.727 21.5133 204.194 18.3861 198.336 18.3861Z" fill="#2B353E" fill-opacity="0.3"/>
<path d="M209.773 47.2185C209.773 45.3888 211.081 44.0137 212.892 44.0137C214.703 44.0137 216.012 45.3998 216.012 47.2185C216.012 49.0482 214.703 50.4233 212.892 50.4233C211.081 50.4233 209.773 49.0482 209.773 47.2185ZM215.486 47.2185C215.486 45.7103 214.446 44.5238 212.881 44.5238C211.316 44.5238 210.276 45.7103 210.276 47.2185C210.276 48.7267 211.316 49.9132 212.881 49.9132C214.446 49.9132 215.486 48.7267 215.486 47.2185ZM211.752 45.4664H212.948C213.641 45.4664 214.055 45.8767 214.055 46.4644C214.055 46.9745 213.708 47.3405 213.261 47.4292L214.312 48.9595H213.798L212.758 47.4625H212.255V48.9595H211.763V45.4664H211.752ZM212.948 47.03C213.351 47.03 213.563 46.8193 213.563 46.4755C213.563 46.1207 213.351 45.921 212.948 45.921H212.244V47.0411H212.948V47.03Z" fill="#2B353E" fill-opacity="0.3"/>
</g>
<defs>
<clipPath id="clip0_16_360">
<rect width="216" height="51" fill="white"/>
</clipPath>
</defs>
</svg>
