<svg width="128" height="30" viewBox="0 0 128 30" fill="none" xmlns="http://www.w3.org/2000/svg">
<path d="M0.91 14.9C0.91 13.1147 1.30867 11.52 2.106 10.116C2.92067 8.69467 4.02133 7.594 5.408 6.814C6.812 6.01667 8.38067 5.618 10.114 5.618C12.142 5.618 13.9187 6.138 15.444 7.178C16.9693 8.218 18.0353 9.65667 18.642 11.494H14.456C14.04 10.6273 13.4507 9.97733 12.688 9.544C11.9427 9.11067 11.076 8.894 10.088 8.894C9.03067 8.894 8.086 9.14533 7.254 9.648C6.43933 10.1333 5.798 10.8267 5.33 11.728C4.87933 12.6293 4.654 13.6867 4.654 14.9C4.654 16.096 4.87933 17.1533 5.33 18.072C5.798 18.9733 6.43933 19.6753 7.254 20.178C8.086 20.6633 9.03067 20.906 10.088 20.906C11.076 20.906 11.9427 20.6893 12.688 20.256C13.4507 19.8053 14.04 19.1467 14.456 18.28H18.642C18.0353 20.1347 16.9693 21.582 15.444 22.622C13.936 23.6447 12.1593 24.156 10.114 24.156C8.38067 24.156 6.812 23.766 5.408 22.986C4.02133 22.1887 2.92067 21.088 2.106 19.684C1.30867 18.28 0.91 16.6853 0.91 14.9ZM24.871 4.76V24H21.231V4.76H24.871ZM27.0114 16.746C27.0114 15.29 27.2974 13.9987 27.8694 12.872C28.4587 11.7453 29.2474 10.8787 30.2354 10.272C31.2407 9.66533 32.3587 9.362 33.5894 9.362C34.664 9.362 35.6 9.57867 36.3974 10.012C37.212 10.4453 37.862 10.9913 38.3474 11.65V9.596H42.0134V24H38.3474V21.894C37.8794 22.57 37.2294 23.1333 36.3974 23.584C35.5827 24.0173 34.638 24.234 33.5634 24.234C32.35 24.234 31.2407 23.922 30.2354 23.298C29.2474 22.674 28.4587 21.7987 27.8694 20.672C27.2974 19.528 27.0114 18.2193 27.0114 16.746ZM38.3474 16.798C38.3474 15.914 38.174 15.16 37.8274 14.536C37.4807 13.8947 37.0127 13.4093 36.4234 13.08C35.834 12.7333 35.2014 12.56 34.5254 12.56C33.8494 12.56 33.2254 12.7247 32.6534 13.054C32.0814 13.3833 31.6134 13.8687 31.2494 14.51C30.9027 15.134 30.7294 15.8793 30.7294 16.746C30.7294 17.6127 30.9027 18.3753 31.2494 19.034C31.6134 19.6753 32.0814 20.1693 32.6534 20.516C33.2427 20.8627 33.8667 21.036 34.5254 21.036C35.2014 21.036 35.834 20.8713 36.4234 20.542C37.0127 20.1953 37.4807 19.71 37.8274 19.086C38.174 18.4447 38.3474 17.682 38.3474 16.798ZM48.6885 11.832C49.1565 11.0693 49.7631 10.4713 50.5085 10.038C51.2711 9.60467 52.1378 9.388 53.1085 9.388V13.21H52.1465C51.0025 13.21 50.1358 13.4787 49.5465 14.016C48.9745 14.5533 48.6885 15.4893 48.6885 16.824V24H45.0485V9.596H48.6885V11.832ZM56.8862 7.88C56.2448 7.88 55.7075 7.68067 55.2742 7.282C54.8582 6.866 54.6502 6.35467 54.6502 5.748C54.6502 5.14133 54.8582 4.63867 55.2742 4.24C55.7075 3.824 56.2448 3.616 56.8862 3.616C57.5275 3.616 58.0562 3.824 58.4722 4.24C58.9055 4.63867 59.1222 5.14133 59.1222 5.748C59.1222 6.35467 58.9055 6.866 58.4722 7.282C58.0562 7.68067 57.5275 7.88 56.8862 7.88ZM58.6802 9.596V24H55.0402V9.596H58.6802ZM75.8745 5.748L68.9065 24H67.6065L60.6645 5.748H61.9385L68.2565 22.622L74.6265 5.748H75.8745ZM84.394 24.208C83.0766 24.208 81.8893 23.9133 80.832 23.324C79.7746 22.7347 78.9426 21.894 78.336 20.802C77.7466 19.6927 77.452 18.4013 77.452 16.928C77.452 15.472 77.7553 14.198 78.362 13.106C78.9686 11.9967 79.8006 11.156 80.858 10.584C81.9326 9.99467 83.1286 9.7 84.446 9.7C85.7633 9.7 86.9506 9.99467 88.008 10.584C89.0653 11.156 89.8886 11.988 90.478 13.08C91.0846 14.172 91.388 15.4547 91.388 16.928C91.388 18.4013 91.0846 19.6927 90.478 20.802C89.8713 21.894 89.0306 22.7347 87.956 23.324C86.8986 23.9133 85.7113 24.208 84.394 24.208ZM84.394 23.168C85.4166 23.168 86.37 22.9427 87.254 22.492C88.1553 22.024 88.8746 21.322 89.412 20.386C89.9493 19.45 90.218 18.2973 90.218 16.928C90.218 15.576 89.9493 14.432 89.412 13.496C88.8746 12.56 88.164 11.8667 87.28 11.416C86.396 10.948 85.4426 10.714 84.42 10.714C83.3973 10.714 82.444 10.948 81.56 11.416C80.6933 11.8667 79.9913 12.56 79.454 13.496C78.9166 14.432 78.648 15.576 78.648 16.928C78.648 18.2973 78.908 19.45 79.428 20.386C79.9653 21.322 80.6673 22.024 81.534 22.492C82.418 22.9427 83.3713 23.168 84.394 23.168ZM95.0158 6.736C94.7384 6.736 94.5044 6.64933 94.3138 6.476C94.1231 6.28533 94.0278 6.034 94.0278 5.722C94.0278 5.42733 94.1231 5.18467 94.3138 4.994C94.5044 4.80333 94.7384 4.708 95.0158 4.708C95.2931 4.708 95.5271 4.80333 95.7178 4.994C95.9084 5.18467 96.0038 5.42733 96.0038 5.722C96.0038 6.034 95.9084 6.28533 95.7178 6.476C95.5271 6.64933 95.2931 6.736 95.0158 6.736ZM95.5878 9.882V24H94.4178V9.882H95.5878ZM98.6288 16.928C98.6288 15.4547 98.9148 14.172 99.4868 13.08C100.076 11.988 100.882 11.156 101.905 10.584C102.945 9.99467 104.132 9.7 105.467 9.7C107.235 9.7 108.682 10.142 109.809 11.026C110.953 11.91 111.663 13.0973 111.941 14.588H110.719C110.493 13.3747 109.904 12.4213 108.951 11.728C108.015 11.0347 106.853 10.688 105.467 10.688C104.427 10.688 103.482 10.922 102.633 11.39C101.783 11.8407 101.099 12.5427 100.579 13.496C100.076 14.432 99.8248 15.576 99.8248 16.928C99.8248 18.2973 100.076 19.45 100.579 20.386C101.099 21.322 101.783 22.024 102.633 22.492C103.482 22.96 104.427 23.194 105.467 23.194C106.853 23.194 108.015 22.8473 108.951 22.154C109.904 21.4607 110.493 20.5073 110.719 19.294H111.941C111.663 20.7673 110.953 21.9547 109.809 22.856C108.665 23.7573 107.217 24.208 105.467 24.208C104.132 24.208 102.945 23.9133 101.905 23.324C100.882 22.7347 100.076 21.894 99.4868 20.802C98.9148 19.6927 98.6288 18.4013 98.6288 16.928ZM127.699 15.992C127.699 16.616 127.682 17.084 127.647 17.396H115.453C115.488 18.6613 115.765 19.7273 116.285 20.594C116.805 21.4607 117.49 22.1107 118.339 22.544C119.189 22.9773 120.116 23.194 121.121 23.194C122.508 23.194 123.669 22.856 124.605 22.18C125.541 21.4867 126.131 20.5507 126.373 19.372H127.595C127.318 20.8107 126.607 21.9807 125.463 22.882C124.319 23.766 122.872 24.208 121.121 24.208C119.804 24.208 118.625 23.9133 117.585 23.324C116.545 22.7347 115.731 21.894 115.141 20.802C114.552 19.6927 114.257 18.4013 114.257 16.928C114.257 15.4547 114.543 14.172 115.115 13.08C115.705 11.988 116.519 11.156 117.559 10.584C118.599 9.99467 119.787 9.7 121.121 9.7C122.473 9.7 123.643 9.99467 124.631 10.584C125.637 11.156 126.399 11.9273 126.919 12.898C127.439 13.8513 127.699 14.8827 127.699 15.992ZM126.529 16.434C126.581 15.186 126.356 14.1287 125.853 13.262C125.368 12.3953 124.701 11.754 123.851 11.338C123.002 10.9047 122.083 10.688 121.095 10.688C120.107 10.688 119.189 10.9047 118.339 11.338C117.507 11.754 116.823 12.3953 116.285 13.262C115.765 14.1287 115.488 15.186 115.453 16.434H126.529Z" fill="white"/>
</svg>
