<svg width="67" height="67" viewBox="0 0 67 67" fill="none" xmlns="http://www.w3.org/2000/svg">
<circle cx="33.5" cy="33.5" r="33.5" fill="#1E71FF"/>
<path d="M50.375 53.6562H16.625C15.8563 53.6562 15.2188 53.0187 15.2188 52.25C15.2188 51.4813 15.8563 50.8438 16.625 50.8438H50.375C51.1437 50.8438 51.7812 51.4813 51.7812 52.25C51.7812 53.0187 51.1437 53.6562 50.375 53.6562Z" fill="white"/>
<path d="M21.5 26.7125H18.5C17.4687 26.7125 16.625 27.5563 16.625 28.5875V44.75C16.625 45.7813 17.4687 46.625 18.5 46.625H21.5C22.5312 46.625 23.375 45.7813 23.375 44.75V28.5875C23.375 27.5375 22.5312 26.7125 21.5 26.7125Z" fill="white"/>
<path d="M35 20.7312H32C30.9687 20.7312 30.125 21.575 30.125 22.6062V44.75C30.125 45.7812 30.9687 46.625 32 46.625H35C36.0313 46.625 36.875 45.7812 36.875 44.75V22.6062C36.875 21.575 36.0313 20.7312 35 20.7312Z" fill="white"/>
<path d="M48.5 14.75H45.5C44.4687 14.75 43.625 15.5938 43.625 16.625V44.75C43.625 45.7813 44.4687 46.625 45.5 46.625H48.5C49.5313 46.625 50.375 45.7813 50.375 44.75V16.625C50.375 15.5938 49.5313 14.75 48.5 14.75Z" fill="white"/>
</svg>
