<svg width="36" height="36" viewBox="0 0 36 36" fill="none" xmlns="http://www.w3.org/2000/svg">
<path d="M19.6832 1.91634L23.7323 10.1184C24.0139 10.6889 24.5583 11.0841 25.1881 11.1755L34.2425 12.4908C35.8286 12.7214 36.4613 14.6693 35.3141 15.7871L28.7624 22.1714C28.3071 22.6154 28.0989 23.2554 28.2067 23.8821L29.7531 32.8971C30.0242 34.476 28.3662 35.6798 26.9479 34.9349L18.8498 30.6789C18.2866 30.3832 17.6134 30.3832 17.0503 30.6789L8.95212 34.9349C7.53379 35.6805 5.87582 34.476 6.1469 32.8971L7.69329 23.8821C7.80113 23.2554 7.59295 22.6154 7.13764 22.1714L0.585898 15.7871C-0.56135 14.6686 0.0714338 12.7206 1.65751 12.4908L10.7119 11.1755C11.3417 11.0841 11.8861 10.6889 12.1677 10.1184L16.2168 1.91634C16.9252 0.479709 18.9741 0.479709 19.6832 1.91634Z" fill="#FBA229"/>
</svg>
