<svg width="67" height="67" viewBox="0 0 67 67" fill="none" xmlns="http://www.w3.org/2000/svg">
<circle cx="33.5" cy="33.5" r="33.5" fill="#1E71FF"/>
<path d="M16.1563 45.9688C15.3875 45.9688 14.75 45.3313 14.75 44.5625V33.875C14.6563 28.7938 16.55 23.9938 20.075 20.3938C23.6 16.8125 28.325 14.8438 33.4063 14.8438C43.7938 14.8438 52.25 23.3 52.25 33.6875V44.375C52.25 45.1438 51.6125 45.7813 50.8438 45.7813C50.075 45.7813 49.4375 45.1438 49.4375 44.375V33.6875C49.4375 24.8563 42.2563 17.6563 33.4063 17.6563C29.075 17.6563 25.0625 19.325 22.0813 22.3625C19.0813 25.4188 17.4875 29.4875 17.5625 33.8375V44.5438C17.5625 45.3313 16.9438 45.9688 16.1563 45.9688Z" fill="white"/>
<path d="M22.1375 34.3438H21.8937C17.9562 34.3438 14.75 37.55 14.75 41.4875V45.0125C14.75 48.95 17.9562 52.1562 21.8937 52.1562H22.1375C26.075 52.1562 29.2812 48.95 29.2812 45.0125V41.4875C29.2812 37.55 26.075 34.3438 22.1375 34.3438Z" fill="white"/>
<path d="M45.1063 34.3438H44.8625C40.925 34.3438 37.7188 37.55 37.7188 41.4875V45.0125C37.7188 48.95 40.925 52.1562 44.8625 52.1562H45.1063C49.0438 52.1562 52.25 48.95 52.25 45.0125V41.4875C52.25 37.55 49.0438 34.3438 45.1063 34.3438Z" fill="white"/>
</svg>
