<svg width="24" height="24" viewBox="0 0 24 24" fill="none" xmlns="http://www.w3.org/2000/svg">
<circle cx="12" cy="12" r="12" fill="#46A805"/>
<path d="M17.25 9.9875H14.45C14.2108 9.9875 14.0125 9.78917 14.0125 9.55V6.75C14.0125 6.51083 14.2108 6.3125 14.45 6.3125C14.6892 6.3125 14.8875 6.51083 14.8875 6.75V9.1125H17.25C17.4892 9.1125 17.6875 9.31083 17.6875 9.55C17.6875 9.78917 17.4892 9.9875 17.25 9.9875Z" fill="white"/>
<path d="M11.4459 13.7208L10.3667 14.8C10.1392 15.0275 9.77752 15.0275 9.54419 14.8058C9.48002 14.7417 9.41585 14.6833 9.35169 14.6192C8.75085 14.0125 8.20835 13.3767 7.72419 12.7117C7.24585 12.0467 6.86085 11.3817 6.58085 10.7225C6.30669 10.0575 6.16669 9.42167 6.16669 8.815C6.16669 8.41833 6.23669 8.03917 6.37669 7.68917C6.51669 7.33333 6.73835 7.00667 7.04752 6.715C7.42085 6.3475 7.82919 6.16667 8.26085 6.16667C8.42419 6.16667 8.58752 6.20167 8.73335 6.27167C8.88502 6.34167 9.01919 6.44667 9.12419 6.59833L10.4775 8.50583C10.5825 8.65167 10.6584 8.78583 10.7109 8.91417C10.7634 9.03667 10.7925 9.15917 10.7925 9.27C10.7925 9.41 10.7517 9.55 10.67 9.68417C10.5942 9.81833 10.4834 9.95833 10.3434 10.0983L9.90002 10.5592C9.83585 10.6233 9.80669 10.6992 9.80669 10.7925C9.80669 10.8392 9.81252 10.88 9.82419 10.9267C9.84169 10.9733 9.85919 11.0083 9.87085 11.0433C9.97585 11.2358 10.1567 11.4867 10.4134 11.79C10.6759 12.0933 10.9559 12.4025 11.2592 12.7117C11.3175 12.77 11.3817 12.8283 11.44 12.8867C11.6734 13.1142 11.6792 13.4875 11.4459 13.7208Z" fill="white"/>
<path d="M17.8158 15.6925C17.8158 15.8558 17.7866 16.025 17.7283 16.1883C17.7108 16.235 17.6933 16.2817 17.67 16.3283C17.5708 16.5383 17.4425 16.7367 17.2733 16.9233C16.9875 17.2383 16.6725 17.4658 16.3166 17.6117C16.3108 17.6117 16.305 17.6175 16.2991 17.6175C15.955 17.7575 15.5816 17.8333 15.1791 17.8333C14.5841 17.8333 13.9483 17.6933 13.2775 17.4075C12.6066 17.1217 11.9358 16.7367 11.2708 16.2525C11.0433 16.0833 10.8158 15.9142 10.6 15.7333L12.5075 13.8258C12.6708 13.9483 12.8166 14.0417 12.9391 14.1058C12.9683 14.1175 13.0033 14.135 13.0441 14.1525C13.0908 14.17 13.1375 14.1758 13.19 14.1758C13.2891 14.1758 13.365 14.1408 13.4291 14.0767L13.8725 13.6392C14.0183 13.4933 14.1583 13.3825 14.2925 13.3125C14.4266 13.2308 14.5608 13.19 14.7066 13.19C14.8175 13.19 14.9341 13.2133 15.0625 13.2658C15.1908 13.3183 15.325 13.3942 15.4708 13.4933L17.4016 14.8642C17.5533 14.9692 17.6583 15.0917 17.7225 15.2375C17.7808 15.3833 17.8158 15.5292 17.8158 15.6925Z" fill="white"/>
</svg>
