<svg width="25" height="24" viewBox="0 0 25 24" fill="none" xmlns="http://www.w3.org/2000/svg">
<circle cx="12.5" cy="12" r="12" fill="#AD0303"/>
<path d="M16.6183 8.5L17.3416 7.77667C17.5108 7.6075 17.5108 7.3275 17.3416 7.15833C17.1725 6.98917 16.8925 6.98917 16.7233 7.15833L16 7.88167L15.2766 7.15833C15.1075 6.98917 14.8275 6.98917 14.6583 7.15833C14.4891 7.3275 14.4891 7.6075 14.6583 7.77667L15.3816 8.5L14.6583 9.22333C14.4891 9.3925 14.4891 9.6725 14.6583 9.84167C14.7458 9.92917 14.8566 9.97 14.9675 9.97C15.0783 9.97 15.1891 9.92917 15.2766 9.84167L16 9.11833L16.7233 9.84167C16.8108 9.92917 16.9216 9.97 17.0325 9.97C17.1433 9.97 17.2541 9.92917 17.3416 9.84167C17.5108 9.6725 17.5108 9.3925 17.3416 9.22333L16.6183 8.5Z" fill="white"/>
<path d="M11.9459 13.7208L10.8667 14.8C10.6392 15.0275 10.2775 15.0275 10.0442 14.8058C9.98002 14.7417 9.91585 14.6833 9.85169 14.6192C9.25085 14.0125 8.70835 13.3767 8.22419 12.7117C7.74585 12.0467 7.36085 11.3817 7.08085 10.7225C6.80669 10.0575 6.66669 9.42167 6.66669 8.815C6.66669 8.41833 6.73669 8.03917 6.87669 7.68917C7.01669 7.33333 7.23835 7.00667 7.54752 6.715C7.92085 6.3475 8.32919 6.16667 8.76085 6.16667C8.92419 6.16667 9.08752 6.20167 9.23335 6.27167C9.38502 6.34167 9.51919 6.44667 9.62419 6.59833L10.9775 8.50583C11.0825 8.65167 11.1584 8.78583 11.2109 8.91417C11.2634 9.03667 11.2925 9.15917 11.2925 9.27C11.2925 9.41 11.2517 9.55 11.17 9.68417C11.0942 9.81833 10.9834 9.95833 10.8434 10.0983L10.4 10.5592C10.3359 10.6233 10.3067 10.6992 10.3067 10.7925C10.3067 10.8392 10.3125 10.88 10.3242 10.9267C10.3417 10.9733 10.3592 11.0083 10.3709 11.0433C10.4759 11.2358 10.6567 11.4867 10.9134 11.79C11.1759 12.0933 11.4559 12.4025 11.7592 12.7117C11.8175 12.77 11.8817 12.8283 11.94 12.8867C12.1734 13.1142 12.1792 13.4875 11.9459 13.7208Z" fill="white"/>
<path d="M18.3158 15.6925C18.3158 15.8558 18.2866 16.025 18.2283 16.1883C18.2108 16.235 18.1933 16.2817 18.17 16.3283C18.0708 16.5383 17.9425 16.7367 17.7733 16.9233C17.4875 17.2383 17.1725 17.4658 16.8166 17.6117C16.8108 17.6117 16.805 17.6175 16.7991 17.6175C16.455 17.7575 16.0816 17.8333 15.6791 17.8333C15.0841 17.8333 14.4483 17.6933 13.7775 17.4075C13.1066 17.1217 12.4358 16.7367 11.7708 16.2525C11.5433 16.0833 11.3158 15.9142 11.1 15.7333L13.0075 13.8258C13.1708 13.9483 13.3166 14.0417 13.4391 14.1058C13.4683 14.1175 13.5033 14.135 13.5441 14.1525C13.5908 14.17 13.6375 14.1758 13.69 14.1758C13.7891 14.1758 13.865 14.1408 13.9291 14.0767L14.3725 13.6392C14.5183 13.4933 14.6583 13.3825 14.7925 13.3125C14.9266 13.2308 15.0608 13.19 15.2066 13.19C15.3175 13.19 15.4341 13.2133 15.5625 13.2658C15.6908 13.3183 15.825 13.3942 15.9708 13.4933L17.9016 14.8642C18.0533 14.9692 18.1583 15.0917 18.2225 15.2375C18.2808 15.3833 18.3158 15.5292 18.3158 15.6925Z" fill="white"/>
</svg>
