<svg width="25" height="24" viewBox="0 0 25 24" fill="none" xmlns="http://www.w3.org/2000/svg">
<circle cx="12.25" cy="12" r="12" fill="#1E71FF"/>
<path d="M16.9166 10.5708C16.6775 10.5708 16.4791 10.3725 16.4791 10.1333V7.77083H14.1166C13.8775 7.77083 13.6791 7.5725 13.6791 7.33333C13.6791 7.09417 13.8775 6.89583 14.1166 6.89583H16.9166C17.1558 6.89583 17.3541 7.09417 17.3541 7.33333V10.1333C17.3541 10.3725 17.1558 10.5708 16.9166 10.5708Z" fill="white"/>
<path d="M11.6959 13.7208L10.6167 14.8C10.3892 15.0275 10.0275 15.0275 9.79419 14.8058C9.73002 14.7417 9.66585 14.6833 9.60169 14.6192C9.00085 14.0125 8.45835 13.3767 7.97419 12.7117C7.49585 12.0467 7.11085 11.3817 6.83085 10.7225C6.55669 10.0575 6.41669 9.42167 6.41669 8.815C6.41669 8.41833 6.48669 8.03917 6.62669 7.68917C6.76669 7.33333 6.98835 7.00667 7.29752 6.715C7.67085 6.3475 8.07919 6.16667 8.51085 6.16667C8.67419 6.16667 8.83752 6.20167 8.98335 6.27167C9.13502 6.34167 9.26919 6.44667 9.37419 6.59833L10.7275 8.50583C10.8325 8.65167 10.9084 8.78583 10.9609 8.91417C11.0134 9.03667 11.0425 9.15917 11.0425 9.27C11.0425 9.41 11.0017 9.55 10.92 9.68417C10.8442 9.81833 10.7334 9.95833 10.5934 10.0983L10.15 10.5592C10.0859 10.6233 10.0567 10.6992 10.0567 10.7925C10.0567 10.8392 10.0625 10.88 10.0742 10.9267C10.0917 10.9733 10.1092 11.0083 10.1209 11.0433C10.2259 11.2358 10.4067 11.4867 10.6634 11.79C10.9259 12.0933 11.2059 12.4025 11.5092 12.7117C11.5675 12.77 11.6317 12.8283 11.69 12.8867C11.9234 13.1142 11.9292 13.4875 11.6959 13.7208Z" fill="white"/>
<path d="M18.0658 15.6925C18.0658 15.8558 18.0366 16.025 17.9783 16.1883C17.9608 16.235 17.9433 16.2817 17.92 16.3283C17.8208 16.5383 17.6925 16.7367 17.5233 16.9233C17.2375 17.2383 16.9225 17.4658 16.5666 17.6117C16.5608 17.6117 16.555 17.6175 16.5491 17.6175C16.205 17.7575 15.8316 17.8333 15.4291 17.8333C14.8341 17.8333 14.1983 17.6933 13.5275 17.4075C12.8566 17.1217 12.1858 16.7367 11.5208 16.2525C11.2933 16.0833 11.0658 15.9142 10.85 15.7333L12.7575 13.8258C12.9208 13.9483 13.0666 14.0417 13.1891 14.1058C13.2183 14.1175 13.2533 14.135 13.2941 14.1525C13.3408 14.17 13.3875 14.1758 13.44 14.1758C13.5391 14.1758 13.615 14.1408 13.6791 14.0767L14.1225 13.6392C14.2683 13.4933 14.4083 13.3825 14.5425 13.3125C14.6766 13.2308 14.8108 13.19 14.9566 13.19C15.0675 13.19 15.1841 13.2133 15.3125 13.2658C15.4408 13.3183 15.575 13.3942 15.7208 13.4933L17.6516 14.8642C17.8033 14.9692 17.9083 15.0917 17.9725 15.2375C18.0308 15.3833 18.0658 15.5292 18.0658 15.6925Z" fill="white"/>
</svg>
