<svg width="174" height="29" viewBox="0 0 174 29" fill="none" xmlns="http://www.w3.org/2000/svg">
<path d="M0.246 15.54C0.246 13.0955 0.791867 10.912 1.8836 8.9896C2.99907 7.04347 4.50613 5.5364 6.4048 4.4684C8.3272 3.37667 10.4751 2.8308 12.8484 2.8308C15.6252 2.8308 18.0579 3.5428 20.1464 4.9668C22.2349 6.3908 23.6945 8.36067 24.5252 10.8764H18.7936C18.224 9.68973 17.4171 8.79973 16.3728 8.2064C15.3523 7.61307 14.1656 7.3164 12.8128 7.3164C11.3651 7.3164 10.0716 7.66053 8.9324 8.3488C7.81693 9.01333 6.9388 9.96267 6.298 11.1968C5.68093 12.4309 5.3724 13.8787 5.3724 15.54C5.3724 17.1776 5.68093 18.6253 6.298 19.8832C6.9388 21.1173 7.81693 22.0785 8.9324 22.7668C10.0716 23.4313 11.3651 23.7636 12.8128 23.7636C14.1656 23.7636 15.3523 23.4669 16.3728 22.8736C17.4171 22.2565 18.224 21.3547 18.7936 20.168H24.5252C23.6945 22.7075 22.2349 24.6892 20.1464 26.1132C18.0816 27.5135 15.6489 28.2136 12.8484 28.2136C10.4751 28.2136 8.3272 27.6796 6.4048 26.6116C4.50613 25.5199 2.99907 24.0128 1.8836 22.0904C0.791867 20.168 0.246 17.9845 0.246 15.54ZM33.0542 1.656V28H28.0702V1.656H33.0542ZM35.9848 18.0676C35.9848 16.074 36.3764 14.3059 37.1596 12.7632C37.9665 11.2205 39.0464 10.0339 40.3992 9.2032C41.7757 8.37253 43.3065 7.9572 44.9916 7.9572C46.463 7.9572 47.7446 8.25387 48.8364 8.8472C49.9518 9.44053 50.8418 10.1881 51.5064 11.09V8.2776H56.526V28H51.5064V25.1164C50.8656 26.042 49.9756 26.8133 48.8364 27.4304C47.7209 28.0237 46.4274 28.3204 44.956 28.3204C43.2946 28.3204 41.7757 27.8932 40.3992 27.0388C39.0464 26.1844 37.9665 24.9859 37.1596 23.4432C36.3764 21.8768 35.9848 20.0849 35.9848 18.0676ZM51.5064 18.1388C51.5064 16.9284 51.269 15.896 50.7944 15.0416C50.3197 14.1635 49.6789 13.4989 48.872 13.048C48.065 12.5733 47.1988 12.336 46.2732 12.336C45.3476 12.336 44.4932 12.5615 43.71 13.0124C42.9268 13.4633 42.286 14.1279 41.7876 15.006C41.3129 15.8604 41.0756 16.8809 41.0756 18.0676C41.0756 19.2543 41.3129 20.2985 41.7876 21.2004C42.286 22.0785 42.9268 22.7549 43.71 23.2296C44.5169 23.7043 45.3713 23.9416 46.2732 23.9416C47.1988 23.9416 48.065 23.7161 48.872 23.2652C49.6789 22.7905 50.3197 22.126 50.7944 21.2716C51.269 20.3935 51.5064 19.3492 51.5064 18.1388ZM65.6657 11.3392C66.3065 10.2949 67.1372 9.47613 68.1577 8.8828C69.202 8.28947 70.3887 7.9928 71.7177 7.9928V13.226H70.4005C68.8341 13.226 67.6475 13.5939 66.8405 14.3296C66.0573 15.0653 65.6657 16.3469 65.6657 18.1744V28H60.6817V8.2776H65.6657V11.3392ZM76.8903 5.928C76.0122 5.928 75.2764 5.65507 74.6831 5.1092C74.1135 4.5396 73.8287 3.83947 73.8287 3.0088C73.8287 2.17813 74.1135 1.48987 74.6831 0.943999C75.2764 0.3744 76.0122 0.0895998 76.8903 0.0895998C77.7684 0.0895998 78.4923 0.3744 79.0619 0.943999C79.6552 1.48987 79.9519 2.17813 79.9519 3.0088C79.9519 3.83947 79.6552 4.5396 79.0619 5.1092C78.4923 5.65507 77.7684 5.928 76.8903 5.928ZM79.3467 8.2776V28H74.3627V8.2776H79.3467ZM102.89 3.0088L93.3489 28H91.5689L82.0637 3.0088H83.8081L92.4589 26.1132L101.181 3.0088H102.89ZM114.555 28.2848C112.751 28.2848 111.125 27.8813 109.678 27.0744C108.23 26.2675 107.091 25.1164 106.26 23.6212C105.453 22.1023 105.05 20.3341 105.05 18.3168C105.05 16.3232 105.465 14.5788 106.296 13.0836C107.126 11.5647 108.265 10.4136 109.713 9.6304C111.185 8.82347 112.822 8.42 114.626 8.42C116.43 8.42 118.055 8.82347 119.503 9.6304C120.951 10.4136 122.078 11.5528 122.885 13.048C123.716 14.5432 124.131 16.2995 124.131 18.3168C124.131 20.3341 123.716 22.1023 122.885 23.6212C122.055 25.1164 120.903 26.2675 119.432 27.0744C117.984 27.8813 116.359 28.2848 114.555 28.2848ZM114.555 26.8608C115.955 26.8608 117.26 26.5523 118.471 25.9352C119.705 25.2944 120.69 24.3332 121.426 23.0516C122.161 21.77 122.529 20.1917 122.529 18.3168C122.529 16.4656 122.161 14.8992 121.426 13.6176C120.69 12.336 119.717 11.3867 118.506 10.7696C117.296 10.1288 115.991 9.8084 114.59 9.8084C113.19 9.8084 111.885 10.1288 110.674 10.7696C109.488 11.3867 108.527 12.336 107.791 13.6176C107.055 14.8992 106.687 16.4656 106.687 18.3168C106.687 20.1917 107.043 21.77 107.755 23.0516C108.491 24.3332 109.452 25.2944 110.639 25.9352C111.849 26.5523 113.155 26.8608 114.555 26.8608ZM129.099 4.3616C128.719 4.3616 128.398 4.24293 128.137 4.0056C127.876 3.74453 127.746 3.4004 127.746 2.9732C127.746 2.56973 127.876 2.23747 128.137 1.9764C128.398 1.71533 128.719 1.5848 129.099 1.5848C129.478 1.5848 129.799 1.71533 130.06 1.9764C130.321 2.23747 130.451 2.56973 130.451 2.9732C130.451 3.4004 130.321 3.74453 130.06 4.0056C129.799 4.24293 129.478 4.3616 129.099 4.3616ZM129.882 8.6692V28H128.28V8.6692H129.882ZM134.046 18.3168C134.046 16.2995 134.437 14.5432 135.22 13.048C136.027 11.5528 137.131 10.4136 138.531 9.6304C139.955 8.82347 141.581 8.42 143.408 8.42C145.829 8.42 147.811 9.0252 149.354 10.2356C150.92 11.446 151.893 13.0717 152.273 15.1128H150.6C150.291 13.4515 149.484 12.1461 148.179 11.1968C146.897 10.2475 145.307 9.7728 143.408 9.7728C141.984 9.7728 140.691 10.0932 139.528 10.734C138.365 11.3511 137.428 12.3123 136.716 13.6176C136.027 14.8992 135.683 16.4656 135.683 18.3168C135.683 20.1917 136.027 21.77 136.716 23.0516C137.428 24.3332 138.365 25.2944 139.528 25.9352C140.691 26.576 141.984 26.8964 143.408 26.8964C145.307 26.8964 146.897 26.4217 148.179 25.4724C149.484 24.5231 150.291 23.2177 150.6 21.5564H152.273C151.893 23.5737 150.92 25.1995 149.354 26.4336C147.787 27.6677 145.805 28.2848 143.408 28.2848C141.581 28.2848 139.955 27.8813 138.531 27.0744C137.131 26.2675 136.027 25.1164 135.22 23.6212C134.437 22.1023 134.046 20.3341 134.046 18.3168ZM173.85 17.0352C173.85 17.8896 173.826 18.5304 173.778 18.9576H157.082C157.13 20.6901 157.509 22.1497 158.221 23.3364C158.933 24.5231 159.871 25.4131 161.034 26.0064C162.197 26.5997 163.466 26.8964 164.843 26.8964C166.742 26.8964 168.332 26.4336 169.613 25.508C170.895 24.5587 171.702 23.2771 172.034 21.6632H173.707C173.328 23.6331 172.354 25.2351 170.788 26.4692C169.222 27.6796 167.24 28.2848 164.843 28.2848C163.039 28.2848 161.425 27.8813 160.001 27.0744C158.577 26.2675 157.462 25.1164 156.655 23.6212C155.848 22.1023 155.444 20.3341 155.444 18.3168C155.444 16.2995 155.836 14.5432 156.619 13.048C157.426 11.5528 158.542 10.4136 159.966 9.6304C161.39 8.82347 163.015 8.42 164.843 8.42C166.694 8.42 168.296 8.82347 169.649 9.6304C171.025 10.4136 172.07 11.4697 172.782 12.7988C173.494 14.1041 173.85 15.5163 173.85 17.0352ZM172.248 17.6404C172.319 15.9316 172.01 14.4839 171.322 13.2972C170.658 12.1105 169.744 11.2324 168.581 10.6628C167.418 10.0695 166.16 9.7728 164.807 9.7728C163.454 9.7728 162.197 10.0695 161.034 10.6628C159.894 11.2324 158.957 12.1105 158.221 13.2972C157.509 14.4839 157.13 15.9316 157.082 17.6404H172.248Z" fill="#1E71FF"/>
</svg>
