<svg xmlns="http://www.w3.org/2000/svg" width="20" height="20" viewBox="0 0 20 20" fill="currentcolor">
<path d="M18.0942 6.3425L12.09 1.53916C10.9167 0.604163 9.08334 0.594996 7.91917 1.53L1.91501 6.3425C1.05334 7.03 0.53084 8.405 0.714173 9.48666L1.86917 16.3983C2.13501 17.9475 3.57417 19.1667 5.14167 19.1667H14.8583C16.4075 19.1667 17.8742 17.92 18.14 16.3892L19.295 9.4775C19.46 8.405 18.9375 7.03 18.0942 6.3425ZM10.6875 15.5C10.6875 15.8758 10.3758 16.1875 10 16.1875C9.62417 16.1875 9.31251 15.8758 9.31251 15.5V12.75C9.31251 12.3742 9.62417 12.0625 10 12.0625C10.3758 12.0625 10.6875 12.3742 10.6875 12.75V15.5Z" fill="currentcolor"/>
</svg>