<svg width="28" height="24" viewBox="0 0 28 24" fill="none" xmlns="http://www.w3.org/2000/svg">
<path d="M4.91 11.9C4.91 10.1147 5.30867 8.52 6.106 7.116C6.92067 5.69467 8.02133 4.594 9.408 3.814C10.812 3.01667 12.3807 2.618 14.114 2.618C16.142 2.618 17.9187 3.138 19.444 4.178C20.9693 5.218 22.0353 6.65667 22.642 8.494H18.456C18.04 7.62733 17.4507 6.97733 16.688 6.544C15.9427 6.11067 15.076 5.894 14.088 5.894C13.0307 5.894 12.086 6.14533 11.254 6.648C10.4393 7.13333 9.798 7.82667 9.33 8.728C8.87933 9.62933 8.654 10.6867 8.654 11.9C8.654 13.096 8.87933 14.1533 9.33 15.072C9.798 15.9733 10.4393 16.6753 11.254 17.178C12.086 17.6633 13.0307 17.906 14.088 17.906C15.076 17.906 15.9427 17.6893 16.688 17.256C17.4507 16.8053 18.04 16.1467 18.456 15.28H22.642C22.0353 17.1347 20.9693 18.582 19.444 19.622C17.936 20.6447 16.1593 21.156 14.114 21.156C12.3807 21.156 10.812 20.766 9.408 19.986C8.02133 19.1887 6.92067 18.088 6.106 16.684C5.30867 15.28 4.91 13.6853 4.91 11.9Z" fill="#1E71FF"/>
</svg>
