<svg width="22" height="22" viewBox="0 0 22 22" fill="currentcolor" xmlns="http://www.w3.org/2000/svg">
<path d="M14.8408 1.83333H7.15918C3.82251 1.83333 1.83334 3.8225 1.83334 7.15916V14.8317C1.83334 18.1775 3.82251 20.1667 7.15918 20.1667H14.8317C18.1683 20.1667 20.1575 18.1775 20.1575 14.8408V7.15916C20.1667 3.8225 18.1775 1.83333 14.8408 1.83333ZM9.08418 14.8408C9.08418 15.4275 8.60751 15.9042 8.01168 15.9042C7.42501 15.9042 6.94834 15.4275 6.94834 14.8408V11.8525C6.94834 11.2658 7.42501 10.7892 8.01168 10.7892C8.60751 10.7892 9.08418 11.2658 9.08418 11.8525V14.8408ZM15.0517 14.8408C15.0517 15.4275 14.575 15.9042 13.9883 15.9042C13.3925 15.9042 12.9158 15.4275 12.9158 14.8408V7.15916C12.9158 6.5725 13.3925 6.09583 13.9883 6.09583C14.575 6.09583 15.0517 6.5725 15.0517 7.15916V14.8408Z" fill="currentcolor" />
</svg>
