<svg width="22" height="22" viewBox="0 0 22 22" fill="currentcolor" xmlns="http://www.w3.org/2000/svg">
<path d="M18.425 8.45166C16.7658 8.45166 16.0875 7.27833 16.9125 5.83916C17.3892 5.005 17.105 3.94166 16.2708 3.465L14.685 2.5575C13.9608 2.12666 13.0258 2.38333 12.595 3.1075L12.4942 3.28166C11.6692 4.72083 10.3125 4.72083 9.47834 3.28166L9.37751 3.1075C8.96501 2.38333 8.03001 2.12666 7.30584 2.5575L5.72001 3.465C4.88584 3.94166 4.60168 5.01416 5.07834 5.84833C5.91251 7.27833 5.23418 8.45166 3.57501 8.45166C2.62168 8.45166 1.83334 9.23083 1.83334 10.1933V11.8067C1.83334 12.76 2.61251 13.5483 3.57501 13.5483C5.23418 13.5483 5.91251 14.7217 5.07834 16.1608C4.60168 16.995 4.88584 18.0583 5.72001 18.535L7.30584 19.4425C8.03001 19.8733 8.96501 19.6167 9.39584 18.8925L9.49668 18.7183C10.3217 17.2792 11.6783 17.2792 12.5125 18.7183L12.6133 18.8925C13.0442 19.6167 13.9792 19.8733 14.7033 19.4425L16.2892 18.535C17.1233 18.0583 17.4075 16.9858 16.9308 16.1608C16.0967 14.7217 16.775 13.5483 18.4342 13.5483C19.3875 13.5483 20.1758 12.7692 20.1758 11.8067V10.1933C20.1667 9.24 19.3875 8.45166 18.425 8.45166ZM11 13.9792C9.35918 13.9792 8.02084 12.6408 8.02084 11C8.02084 9.35916 9.35918 8.02083 11 8.02083C12.6408 8.02083 13.9792 9.35916 13.9792 11C13.9792 12.6408 12.6408 13.9792 11 13.9792Z" fill="currentcolor" />
</svg>
