<svg width="22" height="22" viewBox="0 0 22 22" fill="currentcolor" xmlns="http://www.w3.org/2000/svg">
<path d="M20.1667 7.15916V14.8408C20.1667 17.7833 17.7833 20.1667 14.8408 20.1667H7.15918C4.21668 20.1667 1.83334 17.7833 1.83334 14.8408V7.15916C1.83334 4.87666 2.76834 3.2175 4.42751 2.41083C5.03251 2.1175 5.72918 2.57583 5.72918 3.245V11.385C5.72918 12.4758 6.15084 13.3467 6.91168 13.7867C7.68168 14.2175 8.65334 14.1258 9.64334 13.53L10.835 12.815C10.9083 12.7783 11.0917 12.7783 11.1467 12.8058L12.3567 13.53C13.0167 13.9242 13.585 14.0525 14.0433 14.0525C14.52 14.0525 14.8867 13.9058 15.1067 13.7775C15.8492 13.3467 16.2708 12.4758 16.2708 11.385V3.245C16.2708 2.57583 16.9767 2.1175 17.5725 2.41083C19.2317 3.2175 20.1667 4.87666 20.1667 7.15916Z" fill="currentcolor"/>
<path d="M13.9792 1.83333C14.4833 1.83333 14.8958 2.24583 14.8958 2.74999V11.385C14.8958 11.9717 14.7217 12.4117 14.4192 12.5858C14.1075 12.7692 13.6125 12.6775 13.0625 12.3475L11.8525 11.6233C11.385 11.3392 10.615 11.3392 10.1475 11.6233L8.93749 12.3475C8.38749 12.6775 7.89249 12.76 7.58082 12.5858C7.27832 12.4117 7.10416 11.9717 7.10416 11.385V2.74999C7.10416 2.24583 7.51666 1.83333 8.02082 1.83333H13.9792Z" fill="currentcolor"/>
</svg>
