<svg width="25" height="24" viewBox="0 0 25 24" fill="none" xmlns="http://www.w3.org/2000/svg">
<circle cx="12.75" cy="12" r="12" fill="#2B353E"/>
<path d="M12.75 7.7125C9.96167 7.7125 7.6925 9.98167 7.6925 12.77C7.6925 15.5583 9.96167 17.8333 12.75 17.8333C15.5383 17.8333 17.8075 15.5642 17.8075 12.7758C17.8075 9.9875 15.5383 7.7125 12.75 7.7125ZM13.1875 12.5833C13.1875 12.8225 12.9892 13.0208 12.75 13.0208C12.5108 13.0208 12.3125 12.8225 12.3125 12.5833V9.66667C12.3125 9.4275 12.5108 9.22917 12.75 9.22917C12.9892 9.22917 13.1875 9.4275 13.1875 9.66667V12.5833Z" fill="white"/>
<path d="M14.4358 7.0125H11.0642C10.8308 7.0125 10.6442 6.82583 10.6442 6.5925C10.6442 6.35917 10.8308 6.16667 11.0642 6.16667H14.4358C14.6692 6.16667 14.8558 6.35333 14.8558 6.58667C14.8558 6.82 14.6692 7.0125 14.4358 7.0125Z" fill="white"/>
</svg>
